<mxfile host="app.diagrams.net" agent="Mozilla/5.0 (Windows NT 10.0; Win64; x64) AppleWebKit/537.36 (KHTML, like Gecko) Chrome/134.0.0.0 Safari/537.36" version="26.1.3">
  <diagram id="9z0v3652Oqm4B89gOYlJ" name="페이지-1">
    <mxGraphModel dx="782" dy="316" grid="1" gridSize="10" guides="1" tooltips="1" connect="1" arrows="1" fold="1" page="1" pageScale="1" pageWidth="827" pageHeight="1169" math="0" shadow="0">
      <root>
        <mxCell id="0" />
        <mxCell id="1" parent="0" />
        <mxCell id="FpGNGzt1KUCDyveO9VYJ-8" value="" style="rounded=0;whiteSpace=wrap;html=1;" vertex="1" parent="1">
          <mxGeometry x="55.98" y="80" width="661.02" height="940" as="geometry" />
        </mxCell>
        <mxCell id="zw83enQWqh24L4Y3v5ms-1" value="Packer" style="rounded=0;whiteSpace=wrap;html=1;" parent="1" vertex="1">
          <mxGeometry x="90" y="110" width="240" height="160" as="geometry" />
        </mxCell>
        <mxCell id="FpGNGzt1KUCDyveO9VYJ-3" value="" style="shape=image;verticalLabelPosition=bottom;labelBackgroundColor=default;verticalAlign=top;aspect=fixed;imageAspect=0;image=data:image/png,iVBORw0KGgoAAAANSUhEUgAAAMsAAABgCAMAAACE/nYsAAAAAXNSR0IArs4c6QAAAARnQU1BAACxjwv8YQUAAADDUExURQAAAAAgMAMjMwUlMggoMAQkMwQkNAUlMwQkMwwrOUNbZlNpcxQyQLjBxYGRmdDW2f///wUlMwQkNKGtstfX1wAAAIeHh/f39ygoKFBQUL+/vzAwMJ+fnyAgIEBAQEhISOfn53h4eLe3t8/PzwgICHBwcO/v7xgYGMfHx6enp2BgYN/f3xAQEH9/f1hYWJeXlzg4OK+vrwUlNQQkMyRATeDk5e/x8jNNWQQkMwQjMmhoaI+Pj2N3gHKEjQUkMgQkMwAgQCwd4lIAAABBdFJOUwAQUGAgz4Df////////////n0D/////////////////////////////////////////MO//////90j/////cHgISfVxIAAAAAlwSFlzAAAXEQAAFxEByibzPwAABP9JREFUeF7l3OlS2zAQAODQFppe1LRxQgIkgRgoRyjQG3q9/1N1dnVa1jpSIkv2dH90LEVZ+7N1mcm01/tvY+uJWdNgPH1m1oSMre0ds6rB2HneIGZrux/V0m8Os7Xdj2xpDAOU2JaGMEiJbmkEwyjxLQ1ggPLiZXTLq9fhMUh5sxvdsvs2OIZRsgSWLDSGU5JYAmMEJY0lKEZSElkCYhQllSUYRqMkswTC6JR0liCYEiWhJQCmTElp2RhjUJJaNsSYlLSWjTAVSmLLBpgqJbVlbYyFktyyJsZGAcveu3ixV7GshbFSwBI5TMsaGDulDRZvDEHJ3r+MHe/NS/DFUJSWhA+m5RQfTOsp7pgOUFwxnaC4YTpCccF0hrIa0yHKKkynKPUYD8oghxiK4mgfimNRnEDpYMQPDuW3SmGk4I0hjqaz4VxvSgWN8aBkx3jSfVk+wfKClw6gMBGXR1jMFMoCUZye6Y2JoDA+lOycnfGDrBhDkT+YCzi+hKM6SyVFyZLns1JrIuwYLwo8hiLP81NZcwVF9mBGcJXX2ElqLNUU2Hi8XI6nmEvvfnTYMF6U7DLP85s8z89HsmqJVwJHQzj6iJU1lmoK1Xh+C4e3pfZUVDF+lBHcOBwiJ6oO+8wiy+bw4QGrpC2WFFrjORxe6+3pMDF+lOwQBy3MXTeq8o4/mFNugqAtlhR6Y5wXneYyE+NJyaZ5ni+xVxXabAO1+QKnWjEIaIslhWlxfC5ljC/lCk46YAuEdqEL6DaX8FjObZdXClsKs49NS9+oC4XxpeDdhHUBbp5+QmAUMGwuRA1psaVQjUczOLwrf6UuBMabghewFBPWlao/40uG8pEWWwpsfDyZTA5xtDitLyI45v5Tv//5i/lhTXxg/YN3FH0VgAHNP2NBWawpsLGMSzXdO8TXb/3+9x89b8yD3HrAMqBtQtgao188ZbGm0C1j2AG5h6D4YkbXvH/wHqI2IQO2XquhT1nsKTRL4bTmy1AUTwzbbS0h4PZqmxC4xzPwPIgawmJPgY3HywccdXLP7RA6xQ+Dc4wWchOCt/gO9iXyWREWewrRmM1ij+aXyChTfDC4RSkF34Tg7vKArTLw7gJhtxApZGN8GypU360Pk+KBeTSvQ2xC2LLP9zD8rtotRArVGKc5cT9WRJXijoH3rEKe5khuQj7C+aGX410v2F7KbiFSaI1xFLHJYUXYKK6YhbyNGPhyCOefw9TEBHjb2di1WqgUWuM5jP9CrVNk2CmOGOxBco/CNlSwzuN4ZfMR2/3jDsRqoVLojfEpr36BoShuGLxhWk/G7cYVm2XFjIbLPxasFiJFuTH+yYC90NFBU1ww+PakvbSwpX6IfUKdGi/kmLAQKYzG2BH5qKOijuKAGU6n06l6mcyyAVQ8PMK/6vpOoDibZ9nCbE6nMBsvoVS7/NdTHDDtiVWUDmFWUzqDcaF0BONG6QTGldIBjDul9RgfCo1pxW8V/Cgkpg2/IfGlUJgWWPwpBCb9b67WodgxyX8Ltx7FikltWZdiwyS2rE+xYNJaNqFUMUktm1EqmJSWTSkmJqFlc4qBSWcJQSljklnCUEqYVJZQFB2TyBKOomHSWEJSFCaJJSxFYlJYQlMEJoElPIVjfka3/GqAwjBJ/i+C8BSBiW5pgsIxsS3NUBgmsqUpCmLiWpqjACaqpUlKr3f/26xpMP40Sokbf82KFfEPBZaagArvBc0AAAAASUVORK5CYII=;rotation=90;" vertex="1" parent="1">
          <mxGeometry x="108.49" y="50" width="54.98" height="26" as="geometry" />
        </mxCell>
        <mxCell id="FpGNGzt1KUCDyveO9VYJ-4" value="" style="shape=image;verticalLabelPosition=bottom;labelBackgroundColor=default;verticalAlign=top;aspect=fixed;imageAspect=0;image=data:image/png,iVBORw0KGgoAAAANSUhEUgAAAMsAAABgCAMAAACE/nYsAAAAAXNSR0IArs4c6QAAAARnQU1BAACxjwv8YQUAAADDUExURQAAAAAgMAMjMwUlMggoMAQkMwQkNAUlMwQkMwwrOUNbZlNpcxQyQLjBxYGRmdDW2f///wUlMwQkNKGtssfHxwAAAH9/fzAwMFBQUK+vrzg4OL+/v5+fn3h4eIeHh2BgYCAgIGhoaM/Pz/f390BAQO/v73BwcBgYGI+PjwgICBAQEN/f3+fn51hYWKenp0hISNfX17e3t5eXlwUlNQQkMyRATeDk5e/x8jNNWQQkMwQjMigoKGN3gHKEjQUkMgQkMwAgQLfEACMAAABBdFJOUwAQUGAgz4Df////////////n0D//////////////////////////////////////////zDv//////dI////cHgIjjYYFQAAAAlwSFlzAAAXEQAAFxEByibzPwAABZRJREFUeF7l3Oly2zYUBWC5qVMlbVOmCeRF3iLZsS0psZ10T7f3f6rOOVgIggAJSiAhTu8Ph6BEkB8BXAAzmkwm/9s4+Mo902M8+9o9kzIODp+7p3qM59/0iDk4nA5qmfaHOTicDmzpDQPK0JaeMKQMbukFIynDW3rAgPLi5eCWb79LjyHl+1eDW179kBwjKUUGS5EaoyhZLIkxmpLHkhRjKJksCTElJZclGcaiZLMkwtiUfJYkmAoloyUBpkrJadkZ41CyWnbEuJS8lp0wNUpmyw6YOiW3ZWuMh5LdsiXGR4Hl9Y/DxeuaZSuMlwLLwOFatsD4Kftg6YwJUIo3L4eON+4jdMWEKHsSXTB7TumC2XtKPGYElFjMKChxmJFQYjCjobRjRkRpw4yK0oyJo7wViJkpH6F4rEsnKJ0WRTHHwZn5ViWqVZxX6rtA6VKXUPmVLtQijImjFO/4IOUNFiwvZGFJGQpNlmoV/Oa1/uza/ugGhff6o3qEMJGU5S0fRMzNmUsUVcPcmZs3WJwqlvdCiJX+DAUh1rLESk7MhfXwYyIp7ES43ztzZrPCHd/ikE95u8Rhg8Wtgk2hGpZ9VIg7WZrh+MZc6AkfJpZSHAshPuBF8okZbIwjHL3H0UeebLC4VfB69fSswTTzg937/FHHRFM2eKEcu/KREXKQnKgP1b3DlloVHHEf5PGVEFdll0OLl1nGHy4mmsJ3eFqc2qlLPfdRUeBl3z9a57yWehXomXK4r6GCgF2OyHJgBqKKiacwSV4wcd5vyrPoNeKJtz5Xp8KWehXMHhzun9Db8AV2OZSsvhwKG9OBwsdd8/WJT+VpdptjpNorfeugxVPFmelweCkLjBk2GYxW8wejxHSgcF7DTIgegn918C0DZBJo0OKpYoPvMpOvMFSQyzhgMHJUTmgOjelCYc++0LOzGhmIJW5beYtBi68K9CokQlx0KWfIhZopVa5uCYX5/NN0+vMv7of+eJL9Q71JO8OoeUHNcQ0WbxXMxDdyPjmTtDtZZ3gBU4lff5tOf/9j0gWDRCX7BeY3+z5yWWKNoZDFWwWBc9nv1pJ0LHujWZk1hqZ0wNxgRKB/yBRjpUu5WhRiZZJbwOKvgiuXGTuV7mqrJbH1GjxRUuIxvPvRNYLTo1nHLL/gTeKBzHsMWAJV4LGvi48qBZA2518r8QfDpkRj0AXsMLmf66YnzjK6rQKWQBVIBCvm4CcUQZsheXNl1BJVSiTm0XmOchEi1y5r/PNF+fyWUBWcdBZXQtzzctAesD5oWO/rcClxGG6aKqFSsN60MB2p1OS3BKvAugVTplzNgXaLdMJWaow6JQrDRZ9ZUmCIyEWI2QpuMHfcy7zst4SqYHrDqli9CdBOdSs1hY8SgeHTlTmSYwQ5mF1LPhJX7w/lt11LqAq1jCmnRg691vV+iNKO4QqwbHR2fcwU3ErJNCunfw4BryVUhVwgW9tLprv29X6I0oaRW1mr0ZmSHuVt5V5STf+32An6LKEqEOhvZhejadyshiNMacGwF9jTMIfJTO6QzcaMaQDZx2cJVMFDuaE0F7CBdSsFoonSjDnH/GZvjNY4cXmBv/p1FsWC0+BGHThpKFAFD+e80KznZijpvZA/minNmD2LNsqIMO2U0WBiKCPBxFFGgYmljAATT9l7TBdKGLMXv1XoRgli9uE3JF0pIcweWLpTApj8v7nahuLHZP8t3HYULya3ZVuKD5PZsj3Fg8lr2YVSx2S17EapYXJadqW4mIyW3SkOJp8lBaWKyWZJQ6lgcllSUWxMJks6ioXJY0lJKTFZLGkpBpPDkpqiMRks6SkK8+fglr96oEhMlv+LID1FYwa39EFRmKEt/VAkZmBLXxRihrX0RwFmUEuflMnk89/umR7jn14pw8a/7omW+A/iXKSh8TA0fAAAAABJRU5ErkJggg==;rotation=90;" vertex="1" parent="1">
          <mxGeometry x="146" y="50" width="54.98" height="26" as="geometry" />
        </mxCell>
        <mxCell id="FpGNGzt1KUCDyveO9VYJ-5" value="" style="shape=image;verticalLabelPosition=bottom;labelBackgroundColor=default;verticalAlign=top;aspect=fixed;imageAspect=0;image=data:image/png,iVBORw0KGgoAAAANSUhEUgAAAMsAAABgCAMAAACE/nYsAAAAAXNSR0IArs4c6QAAAARnQU1BAACxjwv8YQUAAADDUExURQAAAAAgMAMjMwUlMggoMAQkMwQkNAUlMwQkMwwrOUNbZlNpcxQyQLjBxYGRmdDW2f///wUlMwQkNKGtst/f3wAAAI+Pj/f39yAgIFhYWM/Pz7+/v5+fn2hoaGBgYDg4OH9/fzAwMK+vr7e3t1BQUAgICEhISO/v7xAQEHh4eNfX1+fn50BAQBgYGHBwcCgoKMfHx4eHh5eXlwUlNQQkMyRATeDk5e/x8jNNWQQkMwQjMqenp2N3gHKEjQUkMgQkMwAgQAISkO4AAABBdFJOUwAQUGAgz4Df////////////n0D//////////////////////////////////////////zDv//////dI////cHgIjjYYFQAAAAlwSFlzAAAXEQAAFxEByibzPwAABWhJREFUeF7l3Oly2zYUBWC7rVM1bVOkEaxYirdYshUtduR0T7f3f6rOOVhIQYAIQiQhTu8PDwGBMj5iuZBH45OT/22cfuHWtBhffuXWNBmnZy/cqhbjxdctYk7PBp1aBu1hTs8GHVtaw4DStaUlDCmdW1rBKEr3lhYwoHzzsnPLt981jyHl+1edW1790DhGUUQGi2gaoylZLA1jDCWPpVGMpWSyNIgpKLksjWFKlGyWhjBlSj5LI5gtSkZLA5htSk7LwRiHktVyIMal5LUchNmhZLYcgNml5LYkYzyU7JZEjI8Cy+sfu4vXO5YkjJcCS8fhWhIwfsoxWGpjAhTx5mXX8cbtQl1MiHIkUQdz5JQ6mKOnxGN6QInF9IISh+kJJQbTG0o1pkeUKkyvKPsxtSlDiTg3xdFbFC9McYzS25EQE1y8s3cxLrfuPEfpypSucZ9tuSfCmNoUcUPLrS2/Z3msS+iSvBN+C5tOTWlKti6MZmXY3ghh6lMEx6HovBD3pR4WvfVZHlA314XRnO8zVCVf81D4MQkU/lIp5Qdbs8AjVTZOuNnStnM7t0LlQl3rN9JNOOF4Y0T4MAkUcYUHL6VcF1WP6AcHgz1SC8Jr4fzUlWqumnmFtyzmbVXsYlIonNd36AQWha5b64FZ4uJ2xEqvhZW697dSorleMJhwj1tt94aLSaGId1LKJ66Z0kJFJQaGA/RR1Xkt7PITr7B2LvBguGC4ORZPpzq2MUkUzvgb8QHLQj1/Bnev8bK8F/kt3LsecAX/5ta0Qan8htVRxqRR+PwWYuF0lFnlEsK1Wb9+yzNq3+MK626CH8Qj86zcxvujwKRRuGAxR56klPelevRlhun/bGr8Fj4Lrou1lPMRhoMLBgN04zauCINJpHCh4HdyEyptoVz1UsprW+O38A0wABjJqUo4Q514iowVGRrz6afB4Odf3Bcr46OaYkJNsk3pFe7Gclb0J2DhAI6E2KjNG+PxLAQ2RpND4+PX3waD3/84ScSgJ2obQifK+QB9M0uBEbDwYDBRe8hQ7XxTNcz2bBMbhpKG4bFDTWv2vRiFIXO/lGu7FwUsnE3nTFNYKKDNlWy37f4oKEmYz+jI1Q2CR97iHIPOXMNj813Awu17SgM2MKbeMdOOPpjFRpmSguEpshT2HKO2WiYPM1YhC6bTnHOL8xEP4RwbQdR5v4htSn3M0qHYTL3Ec71VWcYsopCF9Qvs6UyZXCnYOC7dhnvDpdTG6PVdCp3kOV53Kv+ZDBOycM1hsqrtG83WdpRiY5dSF4OHOZuY4PGeS53LCNsQDzFzlXZCFh5jgFZ7CGmYaBylyPBR6mGYXOyHYZ7J2FnmyRk/lbBONQlaMKFgnqgiaLNykq0OP6UWhlvXZ1skDeeYC1yo/Uud/rmKghb19wI517u3SrJ1DjAhSg0MZ0P5LMsPy0uV/cyRkj17QqOgRX/INqmRG4YdpYgIU+Ix7HMxxfSZbPPAobB/XMF5gA85bOEOUdzB++PP+/so0ZjNarValT8uLVDx+IyfF7YrdyjePwgxdpvbmOCVlU2NNygVWbci9lOiMccQVZQeYaopvcHEUHqCiaP0AhNL6QEmnnL0mDqUMOYovqtQjxLEHMN3SOpSQpgjsNSnBDD5v3OVQvFjsn8XLo3ixeS2pFJ8mMyWdIoHk9dyCGUXk9VyGGUHk9NyKMXFZLQcTnEw+SxNULYx2SzNULYwuSxNUcqYTJbmKCVMHkuTlAKTxdIsxWJyWJqmGEwGS/MUjfmzc8tfLVAUJsv/ImieYjCdW9qgaEzXlnYoCtOxpS0KMd1a2qMA06mlTcrJyae/3ZoW459WKd3Gv25FRfwH4OeZJ6c6rpgAAAAASUVORK5CYII=;rotation=90;" vertex="1" parent="1">
          <mxGeometry x="370" y="50" width="54.98" height="26" as="geometry" />
        </mxCell>
        <mxCell id="FpGNGzt1KUCDyveO9VYJ-6" value="" style="shape=image;verticalLabelPosition=bottom;labelBackgroundColor=default;verticalAlign=top;aspect=fixed;imageAspect=0;image=data:image/png,iVBORw0KGgoAAAANSUhEUgAAAMsAAABhCAMAAABPoqWJAAAAAXNSR0IArs4c6QAAAARnQU1BAACxjwv8YQUAAACHUExURQAAAAUlMgQkNAQkM0tibff4+f////f3939/f8fHx4eHh7e3t+fn59/f38/Pz7+/v5+fnwAAAFBQUHBwcBgYGBAQEHh4eEBAQAgICO/v74+Pj9fX1yAgIJeXl6enpzAwMDg4OGhoaCgoKGBgYFhYWK+vrwQkNCtGUwUlM4GRmQQkNAAgQEhISOBvkUEAAAAsdFJOUwBggP//////////////////////////////////////////////QP+f/7cIs/vRFwAAAAlwSFlzAAAXEQAAFxEByibzPwAABL1JREFUeF7l2m1XmzAYBuB2zFBrFaOltFZXrTp18///vp37IRAaXkJCQsrZ/WErD3iaC/KGx9ns/81cLXjMD7XgNvNIrXhM5BUzj0a1+MTMo5Et/jCgjGzxhSHK2BY/mJwyusUHBpSfo1vwjc4xRLkY3XLhAZNT2OgW5h4jKAEszjEFJYTFMaakBLE4xUhKGItDTIUSyOIMU6WEsjjCnFCCWZxgTinhLA4wCiWgZTBGpYS0DMTUKEEtgzB1SljLAEwDJbDFGtNECW2xxDRSYBk3agNsMM2U8BYLTAvlDCzGmDbKWcQMc9YUM8yZU0wwZ0/pj5kApS9mEpR+mIlQ+mAmQ9FjJkTRYewo8QK5LI+XOLwqjlY4WjLGrvHhprxKhKqUJInVk5p0Yewo7JYjd+XxPQ7XRcPoaMEYS/DhtrxKhKoi6eZaPd2ddowlhWXUkO2uOI7XOH7ID/ZbzvkjYHoL52ntuXWnDWNLWYl2PJWVXzgUD+YOn6nD9bHwx5V6QXeaMbYUtuScHzjnz7L0jGbRg7nEp7z7dVhQTV4IU7tAkyaMNYUd0W40Q3b2GxyucYuB3Ob3WmNhbIOP9+oFutQx9hTc+XSHUYEBLkID/l70NjFytBa6Ay/qBdqoGHsKQ9d4ZW/o67K4wvDfrmgWOIgZTWuh/ijgJjnFDKDEKY3td7RDLjGMOt2SZuuiqrWgj63L2dAgVcwACiHSOCdV+wcGyhH/vBYVjWW3wKP8pZ7vFYkZQqE5F819zU1lqMMUMwClw3LMMrD5Y6Ke7pkC8zuKog9bygqDHsvHFdryXjmDEXSy6nRYRDLDZb+Si48oiuaz2WcURV/qyZ7BuKDHQcNc7mMErjpR6y2cZ3v1fM98RVH05+9sEEaOCMxnch/DYiw7nPPvstJhOWZZhgfM+bbckxqlpAzA7PH9iwTB8l/pURjJtC8r+12Hhaor/Ijck5qkQrHH0FJdSbmPucFtXuLZlI3TWcQKW7tCnxOKNYbufDXF8Mj3Lk8oFbsSvYXmPuNNjEqxxIjxXYnYx1CHe8hJXOzj9Ra7TUyNYoeheXdTvBjSmwrV6aUFnYu2A4f8Yr2FHqPpJqaBYoOhHaXc6pOMdiz0dkaDnl5f8hlBa9lj78ANl8tGigWGtlt4lc9Dm2J0Ebq/uZG6TUprf4dlkyTJAjsHzp/N5rEWijmGbr9cDGM8pjTO9wLFKKE3rDd86rDIpGZLfyvFFHNN97FSoDv7zr7L5hebHNrl9LEczHpYB8UQQ2ub7GJiWrujnifeJYurjnEPS5oZ7pI7KWaYGyz31feNGIVLKsvfp1ARl+3wf+1XE1Q9/Ym+0VDMMGGjpUwH04MyFUwvyjQwPSlTwPSmnD/GgHLuGCNKO0b9swjvURtgTmnFqF/lPWoDLChtGPWrvEdtgA2lBRP678fsKM2Y0BZLSiMmsMWa0oQJaxlAacAEtQyi1DEhLQMpNUxAy2CKiglncUBRMMEsTiinmFAWR5QTTCCLM0oVE8bikFLBBLE4pUhMCItjSokJYHFOKTDjWzxQBGZ0ixdKjhnd4odSYNSqx/ijCIxa9BiPlByj1jzGJ4UwasljvFKAUSse45cym32qBY/xTBk1ppR/4O8fp4FZb08AAAAASUVORK5CYII=;rotation=90;" vertex="1" parent="1">
          <mxGeometry x="400" y="47.81999999999999" width="58.99" height="28.18" as="geometry" />
        </mxCell>
        <mxCell id="FpGNGzt1KUCDyveO9VYJ-10" value="" style="endArrow=classic;html=1;rounded=0;" edge="1" parent="1">
          <mxGeometry width="50" height="50" relative="1" as="geometry">
            <mxPoint x="360" y="1040" as="sourcePoint" />
            <mxPoint x="360" y="1140" as="targetPoint" />
          </mxGeometry>
        </mxCell>
        <mxCell id="FpGNGzt1KUCDyveO9VYJ-11" value="" style="endArrow=classic;html=1;rounded=0;" edge="1" parent="1">
          <mxGeometry width="50" height="50" relative="1" as="geometry">
            <mxPoint x="400" y="1140" as="sourcePoint" />
            <mxPoint x="400" y="1040" as="targetPoint" />
          </mxGeometry>
        </mxCell>
        <mxCell id="FpGNGzt1KUCDyveO9VYJ-12" value="Tag Allocator" style="rounded=0;whiteSpace=wrap;html=1;" vertex="1" parent="1">
          <mxGeometry x="304.98" y="290" width="120" height="40" as="geometry" />
        </mxCell>
        <mxCell id="FpGNGzt1KUCDyveO9VYJ-13" value="UnPacker" style="rounded=0;whiteSpace=wrap;html=1;" vertex="1" parent="1">
          <mxGeometry x="370" y="110" width="240" height="160" as="geometry" />
        </mxCell>
        <mxCell id="FpGNGzt1KUCDyveO9VYJ-16" value="Flow Control" style="rounded=0;whiteSpace=wrap;html=1;" vertex="1" parent="1">
          <mxGeometry x="98.49" y="470" width="201.51" height="110" as="geometry" />
        </mxCell>
        <mxCell id="FpGNGzt1KUCDyveO9VYJ-17" value="Actor" style="shape=umlActor;verticalLabelPosition=bottom;verticalAlign=top;html=1;outlineConnect=0;" vertex="1" parent="1">
          <mxGeometry x="120.98000000000002" y="490" width="30" height="60" as="geometry" />
        </mxCell>
        <mxCell id="FpGNGzt1KUCDyveO9VYJ-19" value="PH" style="shape=cylinder3;whiteSpace=wrap;html=1;boundedLbl=1;backgroundOutline=1;size=15;" vertex="1" parent="1">
          <mxGeometry x="64.98" y="360" width="40" height="50" as="geometry" />
        </mxCell>
        <mxCell id="FpGNGzt1KUCDyveO9VYJ-22" value="PD" style="shape=cylinder3;whiteSpace=wrap;html=1;boundedLbl=1;backgroundOutline=1;size=15;" vertex="1" parent="1">
          <mxGeometry x="114" y="360" width="40" height="50" as="geometry" />
        </mxCell>
        <mxCell id="FpGNGzt1KUCDyveO9VYJ-24" value="NPH" style="shape=cylinder3;whiteSpace=wrap;html=1;boundedLbl=1;backgroundOutline=1;size=15;" vertex="1" parent="1">
          <mxGeometry x="172" y="360" width="40" height="50" as="geometry" />
        </mxCell>
        <mxCell id="FpGNGzt1KUCDyveO9VYJ-25" value="NPD" style="shape=cylinder3;whiteSpace=wrap;html=1;boundedLbl=1;backgroundOutline=1;size=15;" vertex="1" parent="1">
          <mxGeometry x="218.01999999999998" y="360" width="40" height="50" as="geometry" />
        </mxCell>
        <mxCell id="FpGNGzt1KUCDyveO9VYJ-26" value="CPL" style="shape=cylinder3;whiteSpace=wrap;html=1;boundedLbl=1;backgroundOutline=1;size=15;" vertex="1" parent="1">
          <mxGeometry x="269" y="360" width="40" height="50" as="geometry" />
        </mxCell>
        <mxCell id="FpGNGzt1KUCDyveO9VYJ-27" value="CPLD" style="shape=cylinder3;whiteSpace=wrap;html=1;boundedLbl=1;backgroundOutline=1;size=15;" vertex="1" parent="1">
          <mxGeometry x="315.02" y="360" width="40" height="50" as="geometry" />
        </mxCell>
        <mxCell id="FpGNGzt1KUCDyveO9VYJ-36" value="" style="shape=cylinder3;whiteSpace=wrap;html=1;boundedLbl=1;backgroundOutline=1;size=15;rotation=-180;" vertex="1" parent="1">
          <mxGeometry x="424.98" y="390" width="40" height="50" as="geometry" />
        </mxCell>
        <mxCell id="FpGNGzt1KUCDyveO9VYJ-37" value="" style="shape=cylinder3;whiteSpace=wrap;html=1;boundedLbl=1;backgroundOutline=1;size=15;rotation=-180;" vertex="1" parent="1">
          <mxGeometry x="470" y="390" width="40" height="50" as="geometry" />
        </mxCell>
        <mxCell id="FpGNGzt1KUCDyveO9VYJ-38" value="" style="shape=cylinder3;whiteSpace=wrap;html=1;boundedLbl=1;backgroundOutline=1;size=15;rotation=-180;" vertex="1" parent="1">
          <mxGeometry x="520" y="390" width="40" height="50" as="geometry" />
        </mxCell>
        <mxCell id="FpGNGzt1KUCDyveO9VYJ-39" value="" style="shape=cylinder3;whiteSpace=wrap;html=1;boundedLbl=1;backgroundOutline=1;size=15;rotation=-180;" vertex="1" parent="1">
          <mxGeometry x="570" y="390" width="40" height="50" as="geometry" />
        </mxCell>
        <mxCell id="FpGNGzt1KUCDyveO9VYJ-40" value="" style="shape=cylinder3;whiteSpace=wrap;html=1;boundedLbl=1;backgroundOutline=1;size=15;rotation=-180;" vertex="1" parent="1">
          <mxGeometry x="620" y="390" width="40" height="50" as="geometry" />
        </mxCell>
        <mxCell id="FpGNGzt1KUCDyveO9VYJ-41" value="" style="shape=cylinder3;whiteSpace=wrap;html=1;boundedLbl=1;backgroundOutline=1;size=15;rotation=-180;" vertex="1" parent="1">
          <mxGeometry x="670" y="390" width="40" height="50" as="geometry" />
        </mxCell>
        <mxCell id="FpGNGzt1KUCDyveO9VYJ-42" value="" style="html=1;shadow=0;dashed=0;align=center;verticalAlign=middle;shape=mxgraph.arrows2.arrow;dy=0.49;dx=17.45;direction=south;notch=0;" vertex="1" parent="1">
          <mxGeometry x="192" y="280" width="20" height="60" as="geometry" />
        </mxCell>
      </root>
    </mxGraphModel>
  </diagram>
</mxfile>
